<svg width="750" height="500" viewBox="0 0 750 500" fill="none" xmlns="http://www.w3.org/2000/svg">
<g clip-path="url(#clip0_222_314)">
<path d="M750 0.0830078H0V500.083H750V0.0830078Z" fill="white"/>
<path d="M526.646 31.9519C531.185 74.4739 533.759 117.206 534.358 159.965C583.657 151.59 634.262 150.951 683.756 158.077" stroke="#E9E9E9" stroke-width="2" stroke-miterlimit="10"/>
<path d="M533.137 40.1519C535.115 55.5129 537.839 70.7789 541.298 85.8759C544.574 100.179 548.93 115.067 559.476 125.269C568.565 134.061 581.135 138.229 593.5 140.878C616.244 145.751 639.652 146.384 662.904 147" stroke="#E9E9E9" stroke-width="2" stroke-miterlimit="10"/>
<path d="M690.32 155.982C696.153 164.893 701.987 173.803 707.82 182.714C707.103 181.41 706.385 180.106 705.668 178.802" stroke="#E9E9E9" stroke-width="2" stroke-miterlimit="10"/>
<path d="M693.134 172.52C699.625 165.72 707.77 160.51 716.666 157.467" stroke="#E9E9E9" stroke-width="2" stroke-miterlimit="10"/>
<path d="M509.652 28.6159C510.424 32.1709 512.055 35.5349 514.367 38.3429C515.704 34.0159 518.262 30.0719 521.669 27.0869C514.07 34.3429 507.511 43.8189 507.691 54.3239C507.658 53.7509 507.626 53.1779 507.593 52.6049" stroke="#E9E9E9" stroke-width="2" stroke-miterlimit="10"/>
<path d="M100.782 56.8862C87.444 60.2052 74.107 63.5232 60.769 66.8422C70.243 65.4822 80.289 69.0432 86.79 76.0672C80.785 74.7112 74.095 77.0982 70.306 81.9492C83.102 79.5722 97.055 85.6092 104.084 96.5622" stroke="#E9E9E9" stroke-width="2" stroke-miterlimit="10"/>
<path d="M101.512 67.8882C108.014 68.4412 114.516 68.9952 121.018 69.5482" stroke="#E9E9E9" stroke-width="2" stroke-miterlimit="10"/>
<path d="M101.495 78.03C106.543 78.031 111.592 78.031 116.64 78.032C116.852 78.032 117.15 77.825 116.981 77.696" stroke="#E9E9E9" stroke-width="2" stroke-miterlimit="10"/>
<path d="M126.79 74.5611C130.858 85.2501 135.645 95.6651 141.109 105.713C141.339 105.012 141.084 104.179 140.5 103.727C142.502 87.0681 148.603 70.8461 158.232 57.1051C186.86 56.6801 215.249 56.0801 243.877 55.6551C244.97 55.6391 246.191 53.9891 245.099 53.9741" stroke="#E9E9E9" stroke-width="2" stroke-miterlimit="10"/>
<path d="M164.64 70.291C166.498 74.925 166.565 80.054 166.605 85.047C166.619 86.778 166.615 88.589 165.814 90.123C165.16 91.376 164.036 92.314 162.883 93.131C161.581 94.052 160.106 94.892 158.512 94.862C156.054 94.816 153.94 92.315 154.304 89.883C154.649 87.574 156.847 85.897 159.129 85.408C161.412 84.918 163.779 85.365 166.071 85.812" stroke="#E9E9E9" stroke-width="2" stroke-miterlimit="10"/>
<path d="M167.762 67.0842C168.806 66.8442 169.958 67.1382 170.76 67.8482C171.098 68.1472 171.392 68.5842 171.285 69.0222C171.017 70.1282 168.788 69.8112 168.714 70.9472C168.876 71.1772 168.976 71.4492 169.003 71.7292C170.321 72.3372 171.721 72.7672 173.152 73.0042" stroke="#E9E9E9" stroke-width="2" stroke-miterlimit="10"/>
<path d="M224.6 67.0842C225.644 66.8442 226.795 67.1382 227.597 67.8482C227.935 68.1472 228.229 68.5842 228.122 69.0222C227.854 70.1282 225.625 69.8112 225.551 70.9472C225.713 71.1772 225.813 71.4492 225.84 71.7292C227.158 72.3372 228.558 72.7672 229.989 73.0042" stroke="#E9E9E9" stroke-width="2" stroke-miterlimit="10"/>
<path d="M191.115 76.4622C191.115 84.4472 191.115 92.4332 191.115 100.418C191.115 100.104 191.115 99.7912 191.115 99.4772" stroke="#E9E9E9" stroke-width="2" stroke-miterlimit="10"/>
<path d="M183.777 88.5302C189.733 88.9652 195.749 88.5822 201.602 87.3962" stroke="#E9E9E9" stroke-width="2" stroke-miterlimit="10"/>
<path d="M209.109 71.2561C210.016 76.0521 212.596 80.5151 216.3 83.6941C216.864 78.7741 219.85 74.5161 222.74 70.4951C221.465 72.4731 220.191 74.4511 218.916 76.4301C217.978 77.8861 217.025 79.3751 216.59 81.0521C216.277 82.2571 216.245 83.5151 216.214 84.7591C216.127 88.2701 216.04 91.7811 215.954 95.2921" stroke="#E9E9E9" stroke-width="2" stroke-miterlimit="10"/>
<path d="M213.493 243.781C154.959 243.34 95.906 251.621 38.775 264.365C38.775 225.508 38.775 186.651 38.775 147.795C64.392 159.752 90.086 170.063 115.702 182.021C151.462 198.713 183.79 217.797 213.493 243.781Z" stroke="#E9E9E9" stroke-width="2" stroke-miterlimit="10"/>
<path d="M17.38 169.598C28.89 174.57 42.19 171.291 53.985 167.041C58.158 165.537 62.355 163.883 65.866 161.172C71.435 156.872 74.753 150.353 77.893 144.056" stroke="#E9E9E9" stroke-width="2" stroke-miterlimit="10"/>
<path d="M191.875 214.701C182.066 226.229 177.356 241.944 179.206 256.966C179.124 256.078 179.042 255.19 178.96 254.301" stroke="#E9E9E9" stroke-width="2" stroke-miterlimit="10"/>
<path d="M215.191 259.094C215.319 255.839 215.255 252.575 215.001 249.327C214.995 251.118 214.988 252.91 214.982 254.701C215.279 253.023 216.873 251.672 218.577 251.652" stroke="#E9E9E9" stroke-width="2" stroke-miterlimit="10"/>
<path d="M132.201 187.401C132.329 184.145 132.265 180.882 132.011 177.634C132.005 179.425 131.998 181.217 131.992 183.008C132.29 181.33 133.883 179.979 135.587 179.959" stroke="#E9E9E9" stroke-width="2" stroke-miterlimit="10"/>
<path d="M31.636 142.645C31.645 145.978 31.653 149.311 31.662 152.644C31.591 151.203 31.52 149.762 31.449 148.322C31.439 148.129 31.433 147.922 31.536 147.759C31.692 147.512 32.025 147.464 32.316 147.44C33.165 147.37 34.141 147.347 34.724 147.969C35.144 148.417 35.228 149.074 35.291 149.685C35.404 150.772 35.517 151.859 35.63 152.945" stroke="#E9E9E9" stroke-width="2" stroke-miterlimit="10"/>
<path d="M41.295 260.016C42.844 258.212 44.557 256.549 46.406 255.055" stroke="#E9E9E9" stroke-width="2" stroke-miterlimit="10"/>
<path d="M49.444 251.63C50.267 250.252 51.458 249.097 52.861 248.317" stroke="#E9E9E9" stroke-width="2" stroke-miterlimit="10"/>
<path d="M56.162 244.628C58.249 243.349 60.113 241.707 61.647 239.798" stroke="#E9E9E9" stroke-width="2" stroke-miterlimit="10"/>
<path d="M63.823 238.83C63.979 238.706 64.135 238.582 64.29 238.458C65.621 237.397 66.953 236.336 68.284 235.274" stroke="#E9E9E9" stroke-width="2" stroke-miterlimit="10"/>
<path d="M70.771 234.029C72.17 233.478 73.301 232.424 74.572 231.619C75.447 231.064 76.391 230.627 77.332 230.192" stroke="#E9E9E9" stroke-width="2" stroke-miterlimit="10"/>
<path d="M80.474 228.293C83.719 225.914 86.881 223.422 89.953 220.824" stroke="#E9E9E9" stroke-width="2" stroke-miterlimit="10"/>
<path d="M93.001 218.889C94.439 217.628 95.877 216.368 97.315 215.107C98.8 213.805 100.291 212.497 101.561 210.986" stroke="#E9E9E9" stroke-width="2" stroke-miterlimit="10"/>
<path d="M104.285 208.76C106.689 206.405 109.249 204.209 111.944 202.192" stroke="#E9E9E9" stroke-width="2" stroke-miterlimit="10"/>
<path d="M115.089 199.73C117.517 197.633 119.946 195.536 122.374 193.439" stroke="#E9E9E9" stroke-width="2" stroke-miterlimit="10"/>
<path d="M137.178 173.563C137.896 173.398 138.688 173.6 139.24 174.088C139.472 174.294 139.674 174.594 139.601 174.896C139.417 175.657 137.884 175.439 137.832 176.22C137.943 176.378 138.013 176.565 138.031 176.758C138.937 177.176 139.9 177.472 140.885 177.635" stroke="#E9E9E9" stroke-width="2" stroke-miterlimit="10"/>
<path d="M362.311 400.481C363.144 390.27 361.009 379.892 362.776 369.801C364.543 359.71 372.237 349.318 382.473 349.733" stroke="#E9E9E9" stroke-width="2" stroke-miterlimit="10"/>
<path d="M354.288 379.801C361.188 379.504 368.089 379.206 374.989 378.909" stroke="#E9E9E9" stroke-width="2" stroke-miterlimit="10"/>
<path d="M390.916 368.855C383.004 373.323 378.802 383.04 379.81 392.071C379.986 393.652 380.314 395.247 381.1 396.63C382.004 398.222 383.509 399.464 385.244 400.049" stroke="#E9E9E9" stroke-width="2" stroke-miterlimit="10"/>
<path d="M393.132 381.416C390.921 381.567 388.878 383.166 388.2 385.276C387.848 386.371 387.843 387.543 387.842 388.693C387.841 389.499 387.855 390.358 388.301 391.029C388.847 391.85 389.943 392.176 390.918 392.029C391.893 391.882 392.764 391.339 393.536 390.725C394.243 390.163 394.909 389.509 395.275 388.683C395.829 387.434 395.609 385.951 395.013 384.721C394.417 383.492 393.482 382.464 392.56 381.456C392.773 382.349 393.366 383.097 393.944 383.811C395.43 385.652 396.926 387.503 398.701 389.067" stroke="#E9E9E9" stroke-width="2" stroke-miterlimit="10"/>
<path d="M395.749 368.686C400.708 372.188 403.912 378.059 404.172 384.125C404.432 390.19 401.743 396.315 397.102 400.228C397.065 399.786 397.028 399.344 396.991 398.902" stroke="#E9E9E9" stroke-width="2" stroke-miterlimit="10"/>
<path d="M407.784 380.216C410.39 380.503 412.976 380.971 415.517 381.617" stroke="#E9E9E9" stroke-width="2" stroke-miterlimit="10"/>
<path d="M407.9 386.235C410.652 386.18 413.405 386.125 416.157 386.07" stroke="#E9E9E9" stroke-width="2" stroke-miterlimit="10"/>
<path d="M427.613 373.423C429.428 376.863 431.087 380.386 432.583 383.976C432.888 379.963 435.371 376.479 437.915 373.36C435.072 376.374 433.142 380.239 432.441 384.323C431.922 387.345 432.064 390.436 432.207 393.498" stroke="#E9E9E9" stroke-width="2" stroke-miterlimit="10"/>
<path d="M603.302 351.666C601.95 349.223 602.55 348.707 599.837 346.329C597.928 344.656 595.914 343.113 594.036 341.4C590.285 337.98 586.772 334.298 583.528 330.393C581.036 327.393 565.868 309.202 567.933 305.451C572.849 296.52 578.569 288.033 584.993 280.118C588.205 276.161 591.593 272.345 595.145 268.69C596.441 267.357 601.029 260.662 601.812 260.596C622.935 258.822 644.136 257.976 665.334 258.063C667.726 260.2 669.661 262.622 671.501 265.25C679.088 276.085 686.492 287.047 693.71 298.13C683.321 311.269 674.531 324.751 666.277 339.327C664.022 343.308 661.844 347.353 660.234 351.635C644.646 351.333 629.048 351.537 613.473 352.24C611.209 352.342 604.527 353.879 603.302 351.666Z" stroke="#E9E9E9" stroke-width="2" stroke-miterlimit="10"/>
<path d="M567.821 309.234C609.496 311.489 651.195 306.71 692.657 301.939" stroke="#E9E9E9" stroke-width="2" stroke-miterlimit="10"/>
<path d="M597.895 266.053C623.256 288.367 645.135 314.631 662.5 343.607" stroke="#E9E9E9" stroke-width="2" stroke-miterlimit="10"/>
<path d="M605.387 352.451C608.325 342.594 614.594 334.126 620.748 325.884C637.041 304.062 653.6 281.966 675.041 265.175" stroke="#E9E9E9" stroke-width="2" stroke-miterlimit="10"/>
<path d="M600.835 253.681C605.072 253.681 609.309 253.681 613.546 253.681" stroke="#E9E9E9" stroke-width="2" stroke-miterlimit="10"/>
<path d="M620.138 253.704C625.019 253.723 629.901 253.445 634.748 252.869" stroke="#E9E9E9" stroke-width="2" stroke-miterlimit="10"/>
<path d="M643.211 252.411C649.015 252.2 654.82 251.989 660.624 251.777" stroke="#E9E9E9" stroke-width="2" stroke-miterlimit="10"/>
<path d="M672.182 256.657C674.806 260.343 677.429 264.029 680.052 267.716" stroke="#E9E9E9" stroke-width="2" stroke-miterlimit="10"/>
<path d="M682.825 272.56C685.112 275.428 687.251 278.414 689.233 281.501" stroke="#E9E9E9" stroke-width="2" stroke-miterlimit="10"/>
<path d="M690.78 285.942C692.759 288.99 694.982 291.88 697.42 294.574C697.293 294.474 697.189 294.346 697.115 294.202C697.025 294.229 696.935 294.255 696.845 294.282" stroke="#E9E9E9" stroke-width="2" stroke-miterlimit="10"/>
<path d="M697.334 300.704C695.263 302.243 693.567 304.284 692.434 306.602" stroke="#E9E9E9" stroke-width="2" stroke-miterlimit="10"/>
<path d="M690.492 310.782C688.878 312.648 687.459 314.682 686.265 316.841" stroke="#E9E9E9" stroke-width="2" stroke-miterlimit="10"/>
<path d="M684.145 320.466C682.697 323.257 681.122 325.982 679.427 328.631" stroke="#E9E9E9" stroke-width="2" stroke-miterlimit="10"/>
<path d="M676.766 333.02C675.426 335.498 674.087 337.975 672.747 340.453C672.747 340.298 672.747 340.143 672.747 339.988" stroke="#E9E9E9" stroke-width="2" stroke-miterlimit="10"/>
<path d="M668.42 346.729C668.285 348.028 667.418 349.113 666.643 350.164C665.503 351.709 664.49 353.347 663.618 355.056C663.552 355.186 663.436 355.34 663.297 355.297C663.157 355.254 663.352 354.995 663.38 355.138" stroke="#E9E9E9" stroke-width="2" stroke-miterlimit="10"/>
<path d="M658.801 356.435C655.089 356.43 651.377 356.426 647.664 356.421C646.937 356.42 646.186 356.424 645.52 356.715" stroke="#E9E9E9" stroke-width="2" stroke-miterlimit="10"/>
<path d="M639.204 356.788C634.843 356.609 630.463 356.876 626.155 357.583" stroke="#E9E9E9" stroke-width="2" stroke-miterlimit="10"/>
<path d="M618.015 357.553C613.549 357.288 609.069 357.259 604.6 357.468" stroke="#E9E9E9" stroke-width="2" stroke-miterlimit="10"/>
<path d="M598.4 353.98C597.619 353.209 596.834 352.442 596.049 351.674C593.364 349.049 590.659 346.408 587.538 344.321" stroke="#E9E9E9" stroke-width="2" stroke-miterlimit="10"/>
<path d="M584.488 341.945C582.406 338.76 579.647 336.021 576.447 333.963" stroke="#E9E9E9" stroke-width="2" stroke-miterlimit="10"/>
<path d="M573.784 331.265C571.637 328.651 569.512 326.019 567.409 323.369" stroke="#E9E9E9" stroke-width="2" stroke-miterlimit="10"/>
<path d="M565.58 319.729C563.177 316.912 563.35 312.682 561.474 309.491" stroke="#E9E9E9" stroke-width="2" stroke-miterlimit="10"/>
<path d="M561.628 305.545C562.815 303.39 564.252 301.374 565.901 299.549" stroke="#E9E9E9" stroke-width="2" stroke-miterlimit="10"/>
<path d="M568.122 295.106C569.564 292.556 571.27 290.156 573.204 287.955" stroke="#E9E9E9" stroke-width="2" stroke-miterlimit="10"/>
<path d="M576.262 283.86C576.434 282.66 577.298 281.692 578.123 280.803C579.67 279.137 581.217 277.471 582.764 275.805" stroke="#E9E9E9" stroke-width="2" stroke-miterlimit="10"/>
<path d="M586.526 271.125C587.339 269.49 588.447 268.002 589.78 266.754" stroke="#E9E9E9" stroke-width="2" stroke-miterlimit="10"/>
<path d="M591.831 262.105C593.365 260.284 594.9 258.464 596.434 256.643" stroke="#E9E9E9" stroke-width="2" stroke-miterlimit="10"/>
<path d="M629.615 288.285C629.3 283.382 630.891 278.58 632.462 273.925C632.608 273.493 632.759 273.05 633.054 272.702C633.897 271.705 635.455 271.888 636.732 272.159C637.732 277.538 638.053 283.042 637.685 288.5" stroke="#E9E9E9" stroke-width="2" stroke-miterlimit="10"/>
<path d="M623.98 279.961C627.566 281.011 631.325 281.472 635.058 281.319C637.064 281.237 639.303 280.846 640.476 279.215" stroke="#E9E9E9" stroke-width="2" stroke-miterlimit="10"/>
<path d="M666.981 314.021C663.711 313.994 660.44 315 657.751 316.861C657.452 317.068 657.151 317.295 656.977 317.614C656.824 317.895 656.783 318.222 656.746 318.54C656.565 320.065 656.491 321.872 657.68 322.843C658.687 323.665 660.193 323.487 661.376 322.95C662.559 322.413 663.594 321.571 664.81 321.115" stroke="#E9E9E9" stroke-width="2" stroke-miterlimit="10"/>
<path d="M629.778 343.49C630.849 342.288 632.464 341.722 633.671 340.657C636.212 338.414 636.404 334.586 636.409 331.196C636.414 327.16 631.641 328.456 630.632 331.169C629.641 333.83 631.359 341.716 629.778 343.49Z" stroke="#E9E9E9" stroke-width="2" stroke-miterlimit="10"/>
<path d="M602.138 319.532C600.655 319.966 599.205 320.515 597.806 321.171C597.932 324.395 598.057 327.619 598.183 330.843C599.109 330.046 600.582 330.506 601.698 330.007C601.723 329.996 601.747 329.985 601.772 329.973" stroke="#E9E9E9" stroke-width="2" stroke-miterlimit="10"/>
<path d="M601.96 325.514C600.107 325.42 598.238 325.664 596.471 326.231" stroke="#E9E9E9" stroke-width="2" stroke-miterlimit="10"/>
<path d="M596.799 300.796C596.582 297.339 596.286 293.888 595.911 290.445C598.027 290.905 600.01 288.646 602.138 289.047" stroke="#E9E9E9" stroke-width="2" stroke-miterlimit="10"/>
<path d="M599.803 293.879C598.441 294.108 597.093 294.421 595.769 294.816" stroke="#E9E9E9" stroke-width="2" stroke-miterlimit="10"/>
<path d="M666.338 292.102C666.325 292.901 666.313 293.712 666.513 294.486C666.714 295.26 667.157 296.005 667.857 296.393C668.639 296.826 669.648 296.738 670.414 296.278C671.181 295.819 671.715 295.032 671.991 294.182C672.196 293.551 672.267 292.854 672.045 292.229C671.801 291.539 671.214 291.001 670.538 290.723C669.861 290.445 668.379 290.522 668.379 290.522C668.379 290.522 670.359 290.451 671.042 289.778C671.725 289.105 671.996 288.016 671.627 287.131C671.513 286.857 671.341 286.605 671.111 286.418C670.91 286.255 670.67 286.147 670.423 286.072C669.359 285.748 667.206 286.01 666.59 287.117C666.272 287.688 666.396 288.528 666.386 289.148C666.371 290.132 666.355 291.117 666.338 292.102Z" stroke="#E9E9E9" stroke-width="2" stroke-miterlimit="10"/>
<path d="M228.627 459.151C228.994 451.32 230.267 443.533 232.412 435.993C235.632 442.162 240.546 447.436 246.473 451.082C246 427.895 246.423 404.689 247.741 381.535C261.408 378.076 275.075 374.617 288.742 371.158" stroke="#E9E9E9" stroke-width="2" stroke-miterlimit="10"/>
<path d="M256.625 389.832C258.011 392.918 261.328 394.541 264.177 396.365C268.098 398.875 271.508 402.179 274.14 406.019" stroke="#E9E9E9" stroke-width="2" stroke-miterlimit="10"/>
<path d="M263.809 408.924C263.032 404.408 265.731 400.101 268.308 396.311C270.723 392.76 273.138 389.208 275.553 385.657" stroke="#E9E9E9" stroke-width="2" stroke-miterlimit="10"/>
<path d="M251.693 430.126C261.171 422.174 272.865 416.892 285.096 415.036" stroke="#E9E9E9" stroke-width="2" stroke-miterlimit="10"/>
<path d="M264.859 454.243C265.149 450.885 264.688 447.501 264.888 444.136C265.088 440.771 266.089 437.23 268.668 435.06C269.015 434.768 269.402 434.497 269.848 434.411C270.509 434.282 271.178 434.578 271.754 434.928C274.486 436.589 276.203 439.585 276.952 442.694C277.701 445.803 277.587 449.049 277.364 452.239" stroke="#E9E9E9" stroke-width="2" stroke-miterlimit="10"/>
<path d="M261.42 446.814C264.835 446.639 268.103 445.44 271.31 444.255C275.136 442.841 278.962 441.426 282.788 440.012" stroke="#E9E9E9" stroke-width="2" stroke-miterlimit="10"/>
<path d="M123.261 393.69C166.433 393.69 201.431 384.031 201.431 372.116C201.431 360.201 166.433 350.542 123.261 350.542C80.0889 350.542 45.091 360.201 45.091 372.116C45.091 384.031 80.0889 393.69 123.261 393.69Z" stroke="#E9E9E9" stroke-width="2" stroke-miterlimit="10"/>
<path d="M123.261 460.969C166.433 460.969 201.431 451.31 201.431 439.395C201.431 427.48 166.433 417.821 123.261 417.821C80.0889 417.821 45.091 427.48 45.091 439.395C45.091 451.31 80.0889 460.969 123.261 460.969Z" stroke="#E9E9E9" stroke-width="2" stroke-miterlimit="10"/>
<path d="M201.198 371.99C197.341 394.654 204.918 418.075 201.254 440.771" stroke="#E9E9E9" stroke-width="2" stroke-miterlimit="10"/>
<path d="M44.843 370.728C45.356 381.849 45.869 392.97 46.381 404.09C46.911 415.592 47.433 427.225 45.231 438.527" stroke="#E9E9E9" stroke-width="2" stroke-miterlimit="10"/>
<path d="M100.577 355.901C100.682 357.979 100.653 360.063 100.49 362.137" stroke="#E9E9E9" stroke-width="2" stroke-miterlimit="10"/>
<path d="M100.351 365.863C100.351 368.271 100.351 370.678 100.351 373.086" stroke="#E9E9E9" stroke-width="2" stroke-miterlimit="10"/>
<path d="M100.351 379.063C100.351 381.72 100.351 384.376 100.351 387.033" stroke="#E9E9E9" stroke-width="2" stroke-miterlimit="10"/>
<path d="M100.102 391.267C100.102 393.675 100.102 396.082 100.102 398.49" stroke="#E9E9E9" stroke-width="2" stroke-miterlimit="10"/>
<path d="M100.102 403.72C100.102 406.792 100.102 409.863 100.102 412.935" stroke="#E9E9E9" stroke-width="2" stroke-miterlimit="10"/>
<path d="M99.856 418.415C99.853 421.653 99.85 424.892 99.847 428.13" stroke="#E9E9E9" stroke-width="2" stroke-miterlimit="10"/>
<path d="M99.873 431.118C99.724 434.114 99.856 437.124 100.266 440.095" stroke="#E9E9E9" stroke-width="2" stroke-miterlimit="10"/>
<path d="M103.58 439.19C105.85 439.388 108.103 439.778 110.308 440.354" stroke="#E9E9E9" stroke-width="2" stroke-miterlimit="10"/>
<path d="M115.046 440.807C118.534 440.911 122.026 440.884 125.512 440.726" stroke="#E9E9E9" stroke-width="2" stroke-miterlimit="10"/>
<path d="M130.238 440.817C133.399 440.764 136.563 440.955 139.694 441.389" stroke="#E9E9E9" stroke-width="2" stroke-miterlimit="10"/>
<path d="M144.187 441.106C148.255 440.96 152.331 441.015 156.394 441.272" stroke="#E9E9E9" stroke-width="2" stroke-miterlimit="10"/>
<path d="M159.877 441.348C163.365 441.258 166.857 441.281 170.343 441.419" stroke="#E9E9E9" stroke-width="2" stroke-miterlimit="10"/>
<path d="M104.335 341.971C102.031 344.552 99.56 346.983 96.942 349.245" stroke="#E9E9E9" stroke-width="2" stroke-miterlimit="10"/>
<path d="M97.457 344.278C99.94 345.623 102.256 347.278 104.334 349.191" stroke="#E9E9E9" stroke-width="2" stroke-miterlimit="10"/>
<path d="M181.513 436.188C179.513 436.34 177.392 436.535 175.787 437.737C174.181 438.939 173.451 441.532 174.853 442.968C175.834 443.973 177.404 444.043 178.807 443.987C179.714 443.951 180.91 443.584 180.854 442.678" stroke="#E9E9E9" stroke-width="2" stroke-miterlimit="10"/>
<path d="M461.592 324.412C456.337 324.751 450.94 326.323 447.175 330.005C443.41 333.686 441.748 339.804 444.272 344.426C444.696 345.203 445.261 345.953 446.066 346.324C446.757 346.642 447.545 346.645 448.306 346.643C452.476 346.63 456.645 346.617 460.815 346.605" stroke="#E9E9E9" stroke-width="2" stroke-miterlimit="10"/>
<path d="M469.736 313.206C472.004 312.972 474.562 312.824 476.276 314.327C478.651 316.41 477.247 321.121 474.12 321.565C473.106 321.709 471.939 321.518 471.175 322.199C470.426 322.867 470.466 324.074 470.852 325C471.674 326.971 473.865 328.277 475.99 328.063C478.115 327.849 480.001 326.132 480.414 324.036" stroke="#E9E9E9" stroke-width="2" stroke-miterlimit="10"/>
<path d="M483.234 330.909C487.918 331.607 492.602 332.305 497.286 333.003" stroke="#E9E9E9" stroke-width="2" stroke-miterlimit="10"/>
<path d="M479.99 341.082C486.112 341.23 492.234 341.377 498.355 341.525" stroke="#E9E9E9" stroke-width="2" stroke-miterlimit="10"/>
<path d="M519.545 316.48C508.8 329.442 504.444 347.458 508.079 363.897" stroke="#E9E9E9" stroke-width="2" stroke-miterlimit="10"/>
<path d="M518.635 347.971C519.166 343.742 520.265 339.586 521.895 335.648C522.509 334.166 523.312 332.596 524.78 331.947C525.47 331.642 526.413 331.643 526.839 332.266C527.01 332.517 527.067 332.826 527.114 333.126C528.01 338.919 526.426 344.773 526.004 350.62C525.988 350.838 525.916 351.119 525.698 351.135C525.48 351.152 525.629 350.687 525.732 350.88" stroke="#E9E9E9" stroke-width="2" stroke-miterlimit="10"/>
<path d="M533.524 335.858C527.3 335.337 520.917 336.964 515.703 340.402" stroke="#E9E9E9" stroke-width="2" stroke-miterlimit="10"/>
<path d="M531.759 318.023C535.493 325.051 537.787 332.841 538.455 340.772C538.69 343.556 538.725 346.376 538.23 349.125C537.236 354.641 534.182 359.542 531.038 364.182C530.795 364.177 530.566 363.997 530.503 363.762" stroke="#E9E9E9" stroke-width="2" stroke-miterlimit="10"/>
<path d="M536.564 314.501C537.181 314.406 537.819 314.456 538.413 314.647C538.914 314.808 539.406 315.091 539.668 315.548C539.93 316.005 539.889 316.66 539.474 316.984C538.796 317.512 537.761 316.877 536.964 317.196C536.103 317.541 536.024 318.71 536.088 319.635C536.708 319.943 537.347 320.257 538.036 320.31C538.726 320.363 539.487 320.093 539.815 319.483" stroke="#E9E9E9" stroke-width="2" stroke-miterlimit="10"/>
<path d="M210.065 130.677C204.339 141.193 198.614 151.71 192.888 162.226" stroke="#E9E9E9" stroke-width="2" stroke-miterlimit="10"/>
<path d="M180.883 134.977C195.677 141.296 209.088 150.831 219.914 162.73C220.18 163.022 220.523 163.344 220.91 163.263C221.297 163.182 221.303 162.429 220.916 162.508" stroke="#E9E9E9" stroke-width="2" stroke-miterlimit="10"/>
<path d="M222.853 140.547C227.417 142.05 232.126 143.115 236.893 143.723" stroke="#E9E9E9" stroke-width="2" stroke-miterlimit="10"/>
<path d="M223.102 148.948C227.671 149.678 232.174 150.823 236.537 152.365" stroke="#E9E9E9" stroke-width="2" stroke-miterlimit="10"/>
<path d="M246.152 134.764C248.63 134.44 251.456 134.216 253.317 135.884C254.454 136.902 254.971 138.424 255.443 139.875C255.58 140.295 255.71 140.781 255.478 141.156C255.336 141.386 255.084 141.523 254.838 141.638C253.302 142.352 251.54 142.571 249.876 142.256C251.835 141.108 254.537 141.94 255.945 143.722C257.353 145.504 257.636 147.968 257.244 150.204C256.821 152.612 255.24 155.19 252.799 155.34C250.709 155.469 248.885 153.764 246.792 153.683C246.773 153.282 246.753 152.88 246.734 152.479" stroke="#E9E9E9" stroke-width="2" stroke-miterlimit="10"/>
<path d="M261.602 144.184C264.084 147.43 266.566 150.676 269.049 153.921C269.109 153.717 269.086 153.49 268.986 153.302" stroke="#E9E9E9" stroke-width="2" stroke-miterlimit="10"/>
<path d="M261.865 153.084C262.394 151.011 264.053 149.455 265.567 147.943C267.265 146.247 268.87 144.458 270.373 142.587" stroke="#E9E9E9" stroke-width="2" stroke-miterlimit="10"/>
<path d="M273.596 142.952C273.722 144.713 274.174 146.449 274.923 148.048C275.105 148.437 275.322 148.836 275.688 149.061C276.083 149.303 276.577 149.297 277.04 149.283C277.935 149.256 278.95 149.172 279.505 148.47C279.896 147.976 279.948 147.303 279.982 146.674C280.083 144.817 280.169 142.959 280.239 141.1C280.286 148.048 278.965 155.006 276.337 161.438C276.055 161.119 275.773 160.799 275.491 160.48" stroke="#E9E9E9" stroke-width="2" stroke-miterlimit="10"/>
<path d="M299.566 142.952C299.692 144.713 300.144 146.449 300.893 148.048C301.075 148.437 301.292 148.836 301.658 149.061C302.053 149.303 302.547 149.297 303.01 149.283C303.905 149.256 304.92 149.172 305.475 148.47C305.866 147.976 305.918 147.303 305.952 146.674C306.053 144.817 306.139 142.959 306.209 141.1C306.256 148.048 304.935 155.006 302.307 161.438C302.025 161.119 301.743 160.799 301.461 160.48" stroke="#E9E9E9" stroke-width="2" stroke-miterlimit="10"/>
<path d="M291.119 141.256C291.045 145.53 291.078 149.806 291.22 154.079" stroke="#E9E9E9" stroke-width="2" stroke-miterlimit="10"/>
<path d="M286.87 148.424C288.222 148.459 289.542 148.059 290.867 147.786C292.537 147.442 294.242 147.299 295.941 147.156" stroke="#E9E9E9" stroke-width="2" stroke-miterlimit="10"/>
<path d="M311.139 134.951C312.075 134.806 313.045 134.883 313.946 135.173C314.707 135.418 315.453 135.847 315.851 136.54C316.249 137.234 316.187 138.228 315.556 138.72C314.527 139.521 312.955 138.558 311.745 139.042C310.438 139.565 310.318 141.34 310.416 142.744C311.356 143.212 312.327 143.688 313.374 143.768C314.421 143.849 315.577 143.439 316.074 142.513" stroke="#E9E9E9" stroke-width="2" stroke-miterlimit="10"/>
<path d="M314.286 450.643C314.574 451.921 314.862 453.198 315.151 454.476C315.237 454.858 315.361 455.288 315.713 455.459C315.99 455.593 316.318 455.517 316.616 455.439C318.712 454.889 320.809 454.338 322.905 453.788C323.48 453.637 324.076 453.475 324.529 453.09C325.031 452.662 325.287 452.02 325.513 451.4C327.28 446.569 333.311 423.509 323.641 424.219C311.996 425.073 312.68 443.521 314.286 450.643Z" stroke="#E9E9E9" stroke-width="2" stroke-miterlimit="10"/>
<path d="M316.621 439.784C317.326 441.828 318.723 443.546 320.047 445.256C324.596 451.132 328.578 457.445 331.92 464.082C331.782 463.242 331.644 462.402 331.506 461.562" stroke="#E9E9E9" stroke-width="2" stroke-miterlimit="10"/>
<path d="M333.271 441.948C336.479 442.272 339.742 442.032 342.868 441.243" stroke="#E9E9E9" stroke-width="2" stroke-miterlimit="10"/>
<path d="M331.905 447.556C336.304 447.349 340.703 447.142 345.101 446.934" stroke="#E9E9E9" stroke-width="2" stroke-miterlimit="10"/>
<path d="M369.65 429.449C363.148 430.508 356.646 431.568 350.145 432.627C354.421 436.238 358.699 439.614 362.974 443.225C357.007 445.895 351.787 450.582 348.417 456.183C355.611 453.653 363.038 452.07 370.593 451.032" stroke="#E9E9E9" stroke-width="2" stroke-miterlimit="10"/>
<path d="M377.301 430.313C374.781 435.543 374.103 441.638 375.412 447.294C375.818 449.049 376.636 450.995 378.36 451.517" stroke="#E9E9E9" stroke-width="2" stroke-miterlimit="10"/>
<path d="M395.372 440.612C398.667 440.616 401.963 440.62 405.258 440.624C405.533 440.624 405.901 440.301 405.649 440.189" stroke="#E9E9E9" stroke-width="2" stroke-miterlimit="10"/>
<path d="M395.168 444.259C397.866 444.259 400.565 444.259 403.263 444.259" stroke="#E9E9E9" stroke-width="2" stroke-miterlimit="10"/>
<path d="M415.787 424.862C414.39 430.825 412.984 436.816 410.697 442.498C409.827 444.66 408.81 446.93 409.193 449.228C409.815 449.665 410.437 450.103 411.059 450.54C411.256 450.679 411.465 450.822 411.705 450.845C412.014 450.875 412.303 450.702 412.565 450.535C413.266 450.089 413.966 449.643 414.667 449.196C415.774 448.491 416.909 447.759 417.673 446.692C418.909 444.963 418.959 442.651 418.618 440.554C418.56 440.199 418.447 439.787 418.11 439.661C417.928 439.593 417.726 439.63 417.537 439.67C414.651 440.288 411.935 441.681 409.748 443.663" stroke="#E9E9E9" stroke-width="2" stroke-miterlimit="10"/>
<path d="M388.597 424.862C387.199 430.825 385.794 436.816 383.507 442.498C382.637 444.66 381.62 446.93 382.003 449.228C382.625 449.665 383.247 450.103 383.869 450.54C384.066 450.679 384.275 450.822 384.515 450.845C384.824 450.875 385.113 450.702 385.375 450.535C386.076 450.089 386.776 449.643 387.477 449.196C388.584 448.491 389.719 447.759 390.483 446.692C391.719 444.963 391.769 442.651 391.428 440.554C391.37 440.199 391.257 439.787 390.92 439.661C390.738 439.593 390.536 439.63 390.347 439.67C387.461 440.288 384.745 441.681 382.558 443.663" stroke="#E9E9E9" stroke-width="2" stroke-miterlimit="10"/>
<path d="M418.372 437.262C420.623 439.86 422.608 442.687 424.289 445.686C424.778 443.39 425.617 441.168 426.768 439.122C427.225 438.309 427.745 437.507 428.477 436.928C425.053 441.45 422.851 446.89 422.166 452.521C422.139 452.33 422.111 452.14 422.084 451.95" stroke="#E9E9E9" stroke-width="2" stroke-miterlimit="10"/>
<path d="M435.035 440.616C437.733 440.616 440.432 440.616 443.13 440.616" stroke="#E9E9E9" stroke-width="2" stroke-miterlimit="10"/>
<path d="M450.901 441.065C447.281 441.525 444.5 445.431 445.248 449.002C446.205 449.691 447.421 449.929 448.6 449.951C449.883 449.974 451.207 449.746 452.287 449.052C453.367 448.358 454.16 447.139 454.113 445.857C454.063 444.478 453.069 443.275 451.871 442.59C450.673 441.905 449.286 441.647 447.929 441.399C450.344 442.11 452.027 444.303 453.137 446.564C454.247 448.824 454.968 451.287 456.365 453.381" stroke="#E9E9E9" stroke-width="2" stroke-miterlimit="10"/>
<path d="M458.234 430.836C462.169 435.39 463.934 441.742 462.911 447.674C461.888 453.606 458.097 459 452.864 461.972C452.824 461.532 452.783 461.093 452.743 460.653" stroke="#E9E9E9" stroke-width="2" stroke-miterlimit="10"/>
<path d="M463.871 428.718C464.741 428.341 465.655 427.956 466.601 428.025C467.547 428.093 468.522 428.775 468.575 429.722C468.645 430.951 467.295 431.711 466.152 432.168C466.151 432.658 466.149 433.149 466.148 433.639C468.313 433.504 470.479 433.368 472.644 433.233" stroke="#E9E9E9" stroke-width="2" stroke-miterlimit="10"/>
<path d="M430.276 27.36C432.024 27.824 433.867 27.36 435.675 27.34C437.483 27.32 439.578 28.003 440.144 29.72C440.562 30.989 439.978 32.382 439.168 33.444C438.358 34.506 437.316 35.389 436.604 36.52C434.519 39.834 436.35 44.894 440.073 46.108C437.367 48.881 435.902 52.307 435.947 56.181C435.992 60.055 437.383 63.849 439.56 67.054C441.141 69.381 443.218 71.657 443.308 74.469C443.359 76.058 442.744 77.598 441.966 78.984C439.176 83.96 434.063 87.567 428.44 88.527" stroke="#E9E9E9" stroke-width="2" stroke-miterlimit="10"/>
<path d="M358.997 27.36C357.249 27.824 355.406 27.36 353.598 27.34C351.79 27.32 349.695 28.003 349.129 29.72C348.711 30.989 349.295 32.382 350.105 33.444C350.915 34.506 351.957 35.389 352.669 36.52C354.754 39.834 352.923 44.894 349.2 46.108C351.906 48.881 353.371 52.307 353.326 56.181C353.281 60.055 351.89 63.849 349.713 67.054C348.132 69.381 346.055 71.657 345.965 74.469C345.914 76.058 346.529 77.598 347.307 78.984C350.097 83.96 355.21 87.567 360.833 88.527" stroke="#E9E9E9" stroke-width="2" stroke-miterlimit="10"/>
<path d="M394.377 40.011C391.151 43.057 387.402 45.593 384.684 49.099C381.966 52.605 380.441 57.542 382.431 61.507C385.276 58.057 389.121 55.442 393.375 54.063C386.536 59.462 381.547 67.76 381.639 76.473C389.028 78.759 397.344 77.857 404.072 74.042C403.99 73.414 403.334 72.922 402.708 73.021" stroke="#E9E9E9" stroke-width="2" stroke-miterlimit="10"/>
<path d="M409.519 42.4929C409.345 53.4239 409.416 64.3589 409.732 75.2869C412.69 75.4869 415.694 74.9679 418.414 73.7859C418.952 73.5519 419.492 73.2839 419.897 72.8599C420.527 72.1999 420.748 71.2479 420.803 70.3369C420.98 67.4279 419.631 64.4689 417.319 62.6959C415.007 60.9219 411.8 60.3849 409.036 61.3089" stroke="#E9E9E9" stroke-width="2" stroke-miterlimit="10"/>
<path d="M367.387 56.2009C364.904 57.3699 362.331 58.6089 360.622 60.7559C358.913 62.9029 358.366 66.2419 360.14 68.3349C363.105 68.3429 366.069 68.3519 369.034 68.3599C371.064 64.4939 369.232 59.1019 365.267 57.2729C367.913 61.9589 371.118 66.3279 374.793 70.2589" stroke="#E9E9E9" stroke-width="2" stroke-miterlimit="10"/>
<path d="M601.485 399.118C614.636 408.008 627.121 417.882 638.807 428.625C644.65 433.996 650.293 439.585 655.721 445.376C658.013 447.821 660.599 452.181 663.393 453.929C664.752 454.779 670.143 455.082 670.555 455.597C660.619 443.204 654.692 427.31 648 412.904C643.287 402.758 639.89 392.647 634.588 382.796C612.136 403.631 591.914 426.868 574.379 451.982C604.199 453.15 634.209 454.193 664.054 455.344" stroke="#E9E9E9" stroke-width="2" stroke-miterlimit="10"/>
<path d="M582.561 447.431C601.322 430.978 621.992 416.704 644.023 404.986C633.698 419.408 623.128 434.95 618.715 452.129C618.614 452.521 618.36 453.016 617.967 452.918C617.575 452.82 618.268 452.215 618.163 452.606" stroke="#E9E9E9" stroke-width="2" stroke-miterlimit="10" stroke-dasharray="2.61 2.61"/>
<path d="M685.335 448.238C682.065 448.211 678.794 449.217 676.105 451.078C675.806 451.285 675.505 451.512 675.331 451.831C675.178 452.112 675.137 452.439 675.1 452.757C674.919 454.282 674.845 456.089 676.034 457.06C677.041 457.882 678.547 457.704 679.73 457.167C680.913 456.63 681.948 455.788 683.164 455.332" stroke="#E9E9E9" stroke-width="2" stroke-miterlimit="10"/>
<path d="M638.178 378.225C638.165 379.024 638.153 379.835 638.353 380.609C638.554 381.383 638.997 382.128 639.697 382.516C640.479 382.949 641.488 382.86 642.254 382.401C643.021 381.942 643.555 381.155 643.831 380.305C644.036 379.674 644.107 378.977 643.885 378.352C643.641 377.662 643.054 377.124 642.378 376.846C641.701 376.568 640.219 376.645 640.219 376.645C640.219 376.645 642.198 376.574 642.882 375.901C643.566 375.228 643.836 374.139 643.467 373.254C643.353 372.98 643.182 372.728 642.951 372.541C642.75 372.378 642.51 372.27 642.263 372.194C641.199 371.87 639.046 372.132 638.43 373.239C638.112 373.81 638.236 374.65 638.226 375.27C638.211 376.255 638.195 377.24 638.178 378.225Z" stroke="#E9E9E9" stroke-width="2" stroke-miterlimit="10"/>
<path d="M562.101 463.66C561.786 458.757 563.377 453.955 564.948 449.3C565.094 448.868 565.246 448.425 565.54 448.077C566.383 447.08 567.941 447.263 569.219 447.534C570.218 452.913 570.54 458.417 570.172 463.875" stroke="#E9E9E9" stroke-width="2" stroke-miterlimit="10"/>
<path d="M562.238 453.734C564.882 452.237 568.047 452.046 571.085 451.998" stroke="#E9E9E9" stroke-width="2" stroke-miterlimit="10"/>
<path d="M642.931 37.931C636.164 36.949 628.974 39.695 624.584 44.938C620.194 50.18 618.754 57.741 620.908 64.23C621.689 66.583 623.155 68.995 625.545 69.656C627.216 70.118 628.986 69.626 630.65 69.135C634.106 68.116 637.562 67.097 641.018 66.078" stroke="#E9E9E9" stroke-width="2" stroke-miterlimit="10"/>
<path d="M646.888 47.683C651.846 47.546 656.813 47.725 661.748 48.217C662.145 48.257 662.558 48.296 662.931 48.157" stroke="#E9E9E9" stroke-width="2" stroke-miterlimit="10"/>
<path d="M646.891 55.052C652.246 55.85 657.591 53.273 662.997 53.558" stroke="#E9E9E9" stroke-width="2" stroke-miterlimit="10"/>
<path d="M675.811 69.713C676.406 63.379 677.001 57.044 677.596 50.71" stroke="#E9E9E9" stroke-width="2" stroke-miterlimit="10"/>
<path d="M683.447 70.4401C682.454 64.2261 685.737 58.1611 686.291 51.8931" stroke="#E9E9E9" stroke-width="2" stroke-miterlimit="10"/>
<path d="M674.571 49.4721C674.931 47.7251 677.142 47.1161 678.921 47.2411C680.28 47.3371 681.622 47.6551 682.879 48.1801C685.454 49.2551 687.597 51.1521 690.063 52.4561C692.53 53.7601 695.685 54.4011 698.029 52.8871" stroke="#E9E9E9" stroke-width="2" stroke-miterlimit="10"/>
<path d="M700.382 71.4201C700.467 66.3181 700.701 61.2181 701.084 56.1301" stroke="#E9E9E9" stroke-width="2" stroke-miterlimit="10"/>
<path d="M707.054 58.679C704.858 59.842 702.761 61.191 700.792 62.707" stroke="#E9E9E9" stroke-width="2" stroke-miterlimit="10"/>
<path d="M707.73 52.4051C708.384 52.4481 709.027 52.1791 709.683 52.2091C710.338 52.2391 711.068 52.8061 710.862 53.4291C710.702 53.9131 710.112 54.0731 709.611 54.1711C708.751 54.3391 707.711 54.7401 707.649 55.6141C707.61 56.1621 708.023 56.6611 708.519 56.8981C709.015 57.1351 709.58 57.1651 710.129 57.1901C711.012 57.2311 711.895 57.2731 712.777 57.3141" stroke="#E9E9E9" stroke-width="2" stroke-miterlimit="10"/>
<path d="M87.678 291.279C80.514 291.522 73.65 295.989 70.528 302.442C68.412 306.815 68.338 312.828 72.185 315.795C77.223 319.681 85.163 315.92 90.628 319.18" stroke="#E9E9E9" stroke-width="2" stroke-miterlimit="10"/>
<path d="M91.867 315.066C92.02 315.592 92.214 316.135 92.622 316.501C93.013 316.852 93.545 316.992 94.054 317.12C96.199 317.657 98.348 318.18 100.5 318.688C101.094 318.828 101.755 318.959 102.288 318.66C102.747 318.402 102.99 317.889 103.196 317.405C105.598 311.765 111.067 298.14 100.777 297.616C92.75 297.206 90.053 308.816 91.867 315.066Z" stroke="#E9E9E9" stroke-width="2" stroke-miterlimit="10"/>
<path d="M117.571 295.135C116.165 296.158 114.384 296.509 112.86 297.346C111.336 298.183 109.994 299.902 110.551 301.549C110.765 302.183 111.232 302.7 111.731 303.146C113.678 304.886 116.216 305.787 118.437 307.161C120.657 308.535 122.715 310.737 122.627 313.346C122.537 316.002 120.118 318.158 117.511 318.674C114.904 319.19 112.207 318.388 109.806 317.248C109.06 316.894 108.203 316.223 108.457 315.438" stroke="#E9E9E9" stroke-width="2" stroke-miterlimit="10"/>
<path d="M139.498 295.482C142.311 294.734 145.365 293.998 148.061 295.098C151.657 296.565 153.294 301.511 151.284 304.834C151.022 305.267 150.703 305.679 150.279 305.956C149.587 306.408 148.714 306.449 147.888 306.475C144.688 306.578 141.488 306.681 138.287 306.784C140.954 307.689 143.884 306.89 146.684 307.188C149.484 307.487 152.572 309.931 151.644 312.59C151.34 313.462 150.654 314.145 149.939 314.73C145.858 318.074 140.044 319.171 135.025 317.545" stroke="#E9E9E9" stroke-width="2" stroke-miterlimit="10"/>
<path d="M173.1 292.783C167.707 293.293 162.315 293.804 156.922 294.314C158.941 297.007 159.718 300.594 158.995 303.882C160.599 302.123 162.7 300.196 165.016 300.746C166.456 301.087 167.518 302.349 168.101 303.709C169.468 306.899 168.51 310.931 165.855 313.167C163.2 315.402 159.064 315.659 156.153 313.769" stroke="#E9E9E9" stroke-width="2" stroke-miterlimit="10"/>
<path d="M185.013 289.431C183.864 289.866 182.667 290.334 181.859 291.258C181.05 292.182 180.791 293.712 181.63 294.61C182.515 295.557 184.042 295.354 185.308 295.076C185.171 293.37 186.003 291.392 184.893 290.09C184.372 289.479 183.476 289.217 182.708 289.451" stroke="#E9E9E9" stroke-width="2" stroke-miterlimit="10"/>
<path d="M191.444 299.295C194.956 299.136 198.467 298.978 201.979 298.819" stroke="#E9E9E9" stroke-width="2" stroke-miterlimit="10"/>
<path d="M191.81 304.095C195.321 303.907 198.831 303.719 202.342 303.531" stroke="#E9E9E9" stroke-width="2" stroke-miterlimit="10"/>
<path d="M214.62 293.924C213.4 299.503 212.925 305.244 213.211 310.947C213.264 312.008 213.376 313.15 214.077 313.948C214.555 314.493 215.243 314.798 215.908 315.087C217.433 315.75 218.959 316.412 220.484 317.074" stroke="#E9E9E9" stroke-width="2" stroke-miterlimit="10"/>
<path d="M211.231 298.916C213.645 298.566 216.048 298.142 218.437 297.644" stroke="#E9E9E9" stroke-width="2" stroke-miterlimit="10"/>
<path d="M223.379 316.782C223.216 310.902 223.052 305.021 222.889 299.141C224.012 302.089 226.27 304.588 229.089 306.003C229.443 303.486 230.604 301.089 232.359 299.25" stroke="#E9E9E9" stroke-width="2" stroke-miterlimit="10"/>
<path d="M239.089 302.285C238.651 306.462 238.214 310.638 237.776 314.815C237.726 315.29 237.515 315.909 237.039 315.868" stroke="#E9E9E9" stroke-width="2" stroke-miterlimit="10"/>
<path d="M233.676 308.39C236.534 308.39 239.391 308.39 242.249 308.39" stroke="#E9E9E9" stroke-width="2" stroke-miterlimit="10"/>
<path d="M250.061 302.363C251.403 303.408 252.703 304.504 254.003 305.6C258.629 309.5 263.255 313.4 267.881 317.301" stroke="#E9E9E9" stroke-width="2" stroke-miterlimit="10"/>
<path d="M252.829 315.336C252.803 314.686 253.223 314.113 253.623 313.599C254.364 312.647 255.105 311.696 255.846 310.744C258.388 307.479 260.995 304.153 264.452 301.879" stroke="#E9E9E9" stroke-width="2" stroke-miterlimit="10"/>
<path d="M599.15 194.059C587.229 200.651 576.694 209.735 568.42 220.556" stroke="#E9E9E9" stroke-width="2" stroke-miterlimit="10"/>
<path d="M558.515 190.097C572.657 198.785 585.639 209.357 597.012 221.446" stroke="#E9E9E9" stroke-width="2" stroke-miterlimit="10"/>
<path d="M612.182 199.344C612.169 206.08 612.156 212.815 612.143 219.551" stroke="#E9E9E9" stroke-width="2" stroke-miterlimit="10"/>
<path d="M601.321 207.08C609.03 207.243 616.711 208.687 623.953 211.336" stroke="#E9E9E9" stroke-width="2" stroke-miterlimit="10"/>
<path d="M631.131 189.838C635.419 196.836 640.377 208.256 639.742 207.308C641.903 200.393 646.265 195.251 650.528 189.392C643.073 197.289 637.72 209.534 636.593 220.335" stroke="#E9E9E9" stroke-width="2" stroke-miterlimit="10"/>
<path d="M653.608 200.287C659.366 200.48 665.133 200.43 670.887 200.138" stroke="#E9E9E9" stroke-width="2" stroke-miterlimit="10"/>
<path d="M653.608 208.757C659.695 208.577 665.789 208.622 671.873 208.893" stroke="#E9E9E9" stroke-width="2" stroke-miterlimit="10"/>
<path d="M679.936 185.186C684.782 187.778 689.365 190.863 693.591 194.378C689.705 196.789 686.127 199.774 683.217 203.301C686.832 205.771 690.438 208.226 694.053 210.696C689.476 215.282 684.102 219.554 679.119 223.696" stroke="#E9E9E9" stroke-width="2" stroke-miterlimit="10"/>
<path d="M349.708 122.166C349.767 131.336 350.816 140.499 352.832 149.445C357.651 139.462 362.964 129.704 369.831 121.003C380.93 120.598 392.244 120.977 403.328 121.679" stroke="#E9E9E9" stroke-width="2" stroke-miterlimit="10"/>
<path d="M390.06 126.589C385.906 127.224 381.946 129.081 378.802 131.87C376.35 134.044 374.289 137.254 375.071 140.436C375.635 142.732 377.6 144.476 379.78 145.39C381.96 146.303 384.36 146.516 386.715 146.718C387.762 146.808 388.808 146.898 389.855 146.987" stroke="#E9E9E9" stroke-width="2" stroke-miterlimit="10"/>
<path d="M299.864 332.141C299.923 341.311 300.972 350.474 302.988 359.42C307.807 349.437 313.12 339.679 319.988 330.978C331.087 330.573 342.401 330.952 353.485 331.654" stroke="#E9E9E9" stroke-width="2" stroke-miterlimit="10"/>
<path d="M323.488 358.669C324.171 353.226 325.586 347.876 327.684 342.808C328.474 340.9 329.508 338.88 331.397 338.045C332.285 337.652 333.499 337.654 334.047 338.456C334.267 338.779 334.341 339.177 334.401 339.563C335.554 347.019 333.515 354.554 332.972 362.079C332.952 362.36 332.859 362.721 332.579 362.742C332.298 362.763 332.49 362.165 332.622 362.414" stroke="#E9E9E9" stroke-width="2" stroke-miterlimit="10"/>
<path d="M342.651 343.079C334.641 342.408 326.425 344.503 319.714 348.928" stroke="#E9E9E9" stroke-width="2" stroke-miterlimit="10"/>
<path d="M438.941 125.366C439 134.536 440.049 143.699 442.065 152.645C446.884 142.662 452.197 132.904 459.065 124.203C470.163 123.798 481.478 124.177 492.562 124.879" stroke="#E9E9E9" stroke-width="2" stroke-miterlimit="10"/>
<path d="M462.674 129.727C466.14 135.384 470.149 144.616 469.635 143.85C471.382 138.259 474.909 134.103 478.355 129.366C472.329 135.75 468.001 145.649 467.089 154.381" stroke="#E9E9E9" stroke-width="2" stroke-miterlimit="10"/>
<path d="M498.088 403.89C498.147 413.06 499.196 422.223 501.212 431.169C506.031 421.186 511.344 411.428 518.212 402.727C529.311 402.322 540.625 402.701 551.709 403.403" stroke="#E9E9E9" stroke-width="2" stroke-miterlimit="10"/>
<path d="M535.136 414.686C530.456 423.513 525.429 427.064 521.806 434.311" stroke="#E9E9E9" stroke-width="2" stroke-miterlimit="10"/>
<path d="M520.452 412.818C523.918 418.475 537.665 434.439 537.152 433.672" stroke="#E9E9E9" stroke-width="2" stroke-miterlimit="10"/>
<path d="M700.608 473.78H612.065V484.398H700.608V473.78Z" fill="#333333"/>
<path opacity="0.4" d="M700.609 484.398H614.301V487.855H700.609V484.398Z" fill="#333333"/>
<path d="M695.994 462.375H612.065V473.472H695.994V462.375Z" fill="#E9E9E9"/>
<path d="M615.091 467.924C615.091 470.988 613.736 473.472 612.065 473.472C610.393 473.472 609.039 470.988 609.039 467.924C609.039 464.86 610.394 462.376 612.065 462.376C613.736 462.375 615.091 464.859 615.091 467.924Z" fill="#F7F7F7"/>
<path d="M699.02 467.924C699.02 470.988 697.665 473.472 695.994 473.472C694.322 473.472 692.968 470.988 692.968 467.924C692.968 464.86 694.323 462.376 695.994 462.376C697.665 462.375 699.02 464.859 699.02 467.924Z" fill="#F7F7F7"/>
<path d="M695.994 450.97H612.065V462.067H695.994V450.97Z" fill="#E9E9E9"/>
<path d="M615.091 456.519C615.091 459.583 613.736 462.067 612.065 462.067C610.393 462.067 609.039 459.583 609.039 456.519C609.039 453.455 610.394 450.971 612.065 450.971C613.736 450.97 615.091 453.454 615.091 456.519Z" fill="#F7F7F7"/>
<path d="M699.02 456.519C699.02 459.583 697.665 462.067 695.994 462.067C694.322 462.067 692.968 459.583 692.968 456.519C692.968 453.455 694.323 450.971 695.994 450.971C697.665 450.97 699.02 453.454 699.02 456.519Z" fill="#F7F7F7"/>
<path d="M657.791 439.536L653.083 441.89L657.791 444.468L653.083 447.747L657.791 450.633H695.994V439.536H657.791Z" fill="#E9E9E9"/>
<path d="M699.02 445.085C699.02 448.149 697.665 450.633 695.994 450.633C694.322 450.633 692.968 448.149 692.968 445.085C692.968 442.021 694.323 439.537 695.994 439.537C697.665 439.536 699.02 442.021 699.02 445.085Z" fill="#F7F7F7"/>
<path d="M654.352 444.385L649.253 442.712L653.45 439.536L608.496 447.9L610.526 458.81L655.48 450.446L650.324 448.47L654.352 444.385Z" fill="#F4F4F4"/>
<path d="M612.486 452.802C613.046 455.815 612.169 458.505 610.525 458.81C608.882 459.116 607.095 456.921 606.535 453.909C605.974 450.896 606.852 448.206 608.495 447.901C610.139 447.595 611.926 449.789 612.486 452.802Z" fill="#D8D8D8"/>
</g>
<defs>
<clipPath id="clip0_222_314">
<rect width="750" height="500" fill="white"/>
</clipPath>
</defs>
</svg>
